<svg width="98" height="44" viewBox="0 0 98 44" fill="none" xmlns="http://www.w3.org/2000/svg">
<path d="M41.3842 27.9514C38.8929 27.9514 37 26.3471 37 24.0014C37 21.6313 38.8318 20.2579 42.1047 20.0635L45.402 19.869V19.0061C45.402 17.7907 44.5471 17.0858 43.2038 17.0858C42.1169 17.0858 41.4575 17.4382 40.6637 18.4591C40.2729 18.8967 39.821 19.1155 39.247 19.1155C38.38 19.1155 37.7572 18.5564 37.7572 17.7542C37.7572 17.4747 37.8182 17.2194 37.9403 16.9521C38.551 15.3964 40.6515 14.4362 43.3626 14.4362C46.7209 14.4362 48.9069 16.1621 48.9069 18.7873V26.2134C48.9069 27.3923 48.1864 28 47.1728 28C46.208 28 45.5363 27.4652 45.4631 26.42V25.7515H45.3898C44.6571 27.1371 43.0206 27.9514 41.3842 27.9514ZM42.5566 25.3869C44.1197 25.3869 45.402 24.3781 45.402 22.9683V22.0203L42.642 22.1904C41.3109 22.2876 40.5538 22.8832 40.5538 23.8069C40.5538 24.7792 41.3598 25.3869 42.5566 25.3869Z" fill="#117AF1"/>
<path d="M52.1676 24.4146V17.3896H51.4837C50.641 17.3896 50.1037 16.8791 50.1037 16.0527C50.1037 15.2262 50.641 14.7157 51.4837 14.7157H52.1676V13.2694C52.1676 12.1269 52.8392 11.422 53.9506 11.422C55.0619 11.422 55.7335 12.1269 55.7335 13.2694V14.7157H56.9914C57.834 14.7157 58.3592 15.2384 58.3592 16.0527C58.3592 16.867 57.834 17.3896 56.9914 17.3896H55.7335V23.6246C55.7335 24.5483 56.0511 24.9372 56.8204 24.998L57.0525 25.0223C57.9317 25.1195 58.408 25.4841 58.408 26.3106C58.408 27.3558 57.3822 27.8906 55.8801 27.8906H55.758C53.3766 27.8906 52.1676 26.7117 52.1676 24.4146Z" fill="#117AF1"/>
<path d="M61.2535 27.9514C60.7894 27.9514 60.4474 27.5989 60.4474 27.0885V10.8508C60.4474 10.3403 60.7772 10 61.2535 10C61.7542 10 62.0717 10.3403 62.0717 10.8508V17.4382H62.1083C62.7556 15.8825 64.2699 14.898 66.2971 14.898C69.0815 14.898 70.84 16.7454 70.84 19.5773V27.0885C70.84 27.5989 70.4981 27.9514 70.0218 27.9514C69.5578 27.9514 69.2158 27.5989 69.2158 27.0885V19.8447C69.2158 17.657 67.9824 16.3322 65.833 16.3322C63.5493 16.3322 62.0717 17.9244 62.0717 20.3065V27.0885C62.0717 27.5989 61.7297 27.9514 61.2535 27.9514Z" fill="#117AF1"/>
<path d="M77.9598 27.9514C75.1998 27.9514 73.4779 26.1648 73.4779 23.3207V15.761C73.4779 15.2505 73.8198 14.898 74.2961 14.898C74.7602 14.898 75.1021 15.2505 75.1021 15.761V23.0412C75.1021 25.2775 76.2989 26.5172 78.4238 26.5172C80.6342 26.5172 82.1241 24.9737 82.1241 22.6036V15.761C82.1241 15.2505 82.4539 14.898 82.9301 14.898C83.4064 14.898 83.7361 15.2505 83.7361 15.761V27.1371C83.7361 27.5989 83.443 27.9514 82.979 27.9514C82.5149 27.9514 82.2096 27.5989 82.2096 27.1371V25.3991H82.173C81.5013 26.9548 79.9748 27.9514 77.9598 27.9514Z" fill="#117AF1"/>
<path d="M87.3876 27.9514C86.9357 27.9514 86.6304 27.6354 86.6304 27.1614V10.8629C86.6304 10.3525 86.9724 10 87.4364 10C87.9127 10 88.2547 10.3525 88.2547 10.8629V17.7421H88.2913C89.024 16.0041 90.6483 14.898 92.6511 14.898C95.8262 14.898 98 17.4868 98 21.4247C98 25.3626 95.8384 27.9514 92.6266 27.9514C90.5994 27.9514 88.9874 26.8454 88.218 25.0709H88.1814V27.1614C88.1814 27.6354 87.8517 27.9514 87.3876 27.9514ZM92.3335 26.5294C94.776 26.5294 96.3513 24.524 96.3513 21.4247C96.3513 18.3376 94.776 16.3201 92.3335 16.3201C89.9399 16.3201 88.2424 18.3984 88.2424 21.4247C88.2424 24.4632 89.9399 26.5294 92.3335 26.5294Z" fill="#117AF1"/>
<path fill-rule="evenodd" clip-rule="evenodd" d="M11.8368 23.3835C12.1374 24.6882 12.7742 25.8481 13.747 26.8633C14.7199 27.8785 15.8539 28.5664 17.1492 28.927C18.4669 29.288 19.783 29.3131 21.0972 29.0022C22.434 28.6917 23.6171 28.048 24.6463 27.0709C25.6756 26.0939 26.3719 24.9538 26.7352 23.6505C27.1094 22.3586 27.1407 21.0546 26.8291 19.7385C26.54 18.4228 25.9091 17.2574 24.9362 16.2422C23.9634 15.2271 22.8235 14.5446 21.5167 14.195C20.2214 13.8344 18.9112 13.8038 17.586 14.1033C16.2717 14.4142 15.0999 15.0582 14.0706 16.0352C13.0414 17.0123 12.3338 18.1522 11.948 19.455C11.5847 20.7583 11.5477 22.0678 11.8368 23.3835Z" fill="#117AF1"/>
<path d="M35.0373 43.329C35.9508 42.8414 36.6626 42.1758 37.1727 41.3321C37.6771 40.4781 37.9521 39.554 37.9975 38.5596C38.0271 37.5604 37.7942 36.6015 37.299 35.6831C36.8037 34.7647 36.1323 34.0466 35.2846 33.5288C34.4268 33.0165 33.5035 32.7385 32.5149 32.6947C31.896 32.6609 31.2927 32.7322 30.7051 32.9084C30.2423 33.0472 29.7233 32.9322 29.4287 32.5501L27.1797 29.4961C26.7999 29.0038 26.0925 28.9785 25.6419 29.4074C25.3563 29.6793 25.0462 29.9216 24.5692 30.1761C24.2768 30.3322 24.1523 30.6198 24.3546 30.882L27.5129 35.1152C27.5669 35.1852 27.5712 35.281 27.5262 35.3571C27.0059 36.2062 26.7282 37.1253 26.693 38.1142C26.6476 39.1085 26.8726 40.0649 27.3678 40.9834C27.8631 41.9018 28.5425 42.6223 29.4059 43.1449C30.2535 43.6627 31.1796 43.9459 32.184 43.9946C33.1726 44.0384 34.1237 43.8165 35.0373 43.329Z" fill="#117AF1"/>
<path d="M11.5124 27.5875C11.8952 28.0843 11.8256 28.825 11.3169 29.1926L9.65028 30.397C9.29334 30.655 9.15292 31.11 9.21326 31.5455C9.24786 31.7952 9.26137 32.0483 9.25378 32.3045C9.21663 33.1181 8.99167 33.8742 8.57892 34.5729C8.16161 35.2632 7.57923 35.8078 6.83177 36.2067C6.08431 36.6056 5.30615 36.7872 4.49728 36.7513C3.67546 36.7115 2.91781 36.4798 2.2243 36.0562C1.51785 35.6286 0.961995 35.0391 0.556775 34.2876C0.151554 33.5362 -0.0324756 32.7537 0.00468149 31.9401C0.0334423 31.131 0.260673 30.3791 0.686375 29.6843C1.09913 28.9856 1.67923 28.4368 2.42669 28.0379C3.17415 27.6389 3.9546 27.4616 4.76802 27.5059C5.57688 27.5418 6.33226 27.7693 7.03417 28.1884C7.16641 28.2692 7.33505 28.2687 7.46062 28.1779L10.1375 26.2435C10.3242 26.1086 10.5777 26.1765 10.6751 26.3849C10.7316 26.506 11.0914 27.041 11.5124 27.5875Z" fill="#117AF1"/>
<path d="M24.5121 13.1058C24.1974 12.9179 24.1075 12.494 24.3387 12.2101L26.4038 9.67339C26.7011 9.30813 26.7035 8.79163 26.4738 8.38067C26.4583 8.35292 26.4429 8.32497 26.4277 8.29685C25.9325 7.37841 25.7076 6.42201 25.753 5.42764C25.7881 4.43874 26.0658 3.51972 26.5861 2.67058C27.0906 1.81661 27.7996 1.14583 28.7132 0.65826C29.6268 0.17069 30.5806 -0.0460269 31.5748 0.00811748C32.5634 0.0519422 33.4867 0.329998 34.3446 0.842277C35.1922 1.36004 35.8636 2.07814 36.3589 2.99658C36.8542 3.91502 37.087 4.87385 37.0574 5.87306C37.012 6.86744 36.7371 7.79161 36.2326 8.64558C35.7225 9.48924 35.0107 10.1549 34.0972 10.6424C33.1836 11.13 32.2325 11.3519 31.2439 11.308C30.8471 11.2888 30.4624 11.233 30.0901 11.1405C29.6543 11.0323 29.1796 11.1474 28.8965 11.4951L27.1062 13.6943C26.7179 14.1713 26.0011 14.199 25.5211 13.8138C25.2023 13.5579 24.8659 13.3219 24.5121 13.1058Z" fill="#117AF1"/>
</svg>